<mxfile host="app.diagrams.net" agent="Mozilla/5.0 (X11; Linux x86_64) AppleWebKit/537.36 (KHTML, like Gecko) Chrome/128.0.0.0 Safari/537.36" version="27.0.9">
  <diagram name="Page-1" id="IfuAwRlGMQyrpKaP67ah">
    <mxGraphModel dx="1360" dy="793" grid="1" gridSize="10" guides="1" tooltips="1" connect="1" arrows="1" fold="1" page="1" pageScale="1" pageWidth="827" pageHeight="1169" math="0" shadow="0">
      <root>
        <mxCell id="0" />
        <mxCell id="1" parent="0" />
        <mxCell id="cqp6TmZRe166Ien4XK5x-4" style="edgeStyle=orthogonalEdgeStyle;rounded=0;orthogonalLoop=1;jettySize=auto;html=1;" edge="1" parent="1" source="cqp6TmZRe166Ien4XK5x-1" target="cqp6TmZRe166Ien4XK5x-3">
          <mxGeometry relative="1" as="geometry" />
        </mxCell>
        <mxCell id="cqp6TmZRe166Ien4XK5x-1" value="Emprunt" style="rounded=1;whiteSpace=wrap;html=1;" vertex="1" parent="1">
          <mxGeometry x="340" y="120" width="120" height="40" as="geometry" />
        </mxCell>
        <mxCell id="cqp6TmZRe166Ien4XK5x-6" style="edgeStyle=orthogonalEdgeStyle;rounded=0;orthogonalLoop=1;jettySize=auto;html=1;" edge="1" parent="1" source="cqp6TmZRe166Ien4XK5x-3" target="cqp6TmZRe166Ien4XK5x-5">
          <mxGeometry relative="1" as="geometry" />
        </mxCell>
        <mxCell id="cqp6TmZRe166Ien4XK5x-3" value="Demander emprunt" style="rounded=1;whiteSpace=wrap;html=1;" vertex="1" parent="1">
          <mxGeometry x="340" y="200" width="120" height="40" as="geometry" />
        </mxCell>
        <mxCell id="cqp6TmZRe166Ien4XK5x-5" value="Examiner abonné" style="rounded=1;whiteSpace=wrap;html=1;" vertex="1" parent="1">
          <mxGeometry x="340" y="290" width="120" height="40" as="geometry" />
        </mxCell>
        <mxCell id="cqp6TmZRe166Ien4XK5x-18" style="edgeStyle=orthogonalEdgeStyle;rounded=0;orthogonalLoop=1;jettySize=auto;html=1;entryX=0.5;entryY=0;entryDx=0;entryDy=0;" edge="1" parent="1" source="cqp6TmZRe166Ien4XK5x-7" target="cqp6TmZRe166Ien4XK5x-9">
          <mxGeometry relative="1" as="geometry" />
        </mxCell>
        <mxCell id="cqp6TmZRe166Ien4XK5x-27" value="oui" style="edgeLabel;html=1;align=center;verticalAlign=middle;resizable=0;points=[];" vertex="1" connectable="0" parent="cqp6TmZRe166Ien4XK5x-18">
          <mxGeometry x="-0.35" y="-1" relative="1" as="geometry">
            <mxPoint as="offset" />
          </mxGeometry>
        </mxCell>
        <mxCell id="cqp6TmZRe166Ien4XK5x-20" style="edgeStyle=orthogonalEdgeStyle;rounded=0;orthogonalLoop=1;jettySize=auto;html=1;entryX=0.5;entryY=0;entryDx=0;entryDy=0;" edge="1" parent="1" source="cqp6TmZRe166Ien4XK5x-7" target="cqp6TmZRe166Ien4XK5x-19">
          <mxGeometry relative="1" as="geometry" />
        </mxCell>
        <mxCell id="cqp6TmZRe166Ien4XK5x-28" value="non" style="edgeLabel;html=1;align=center;verticalAlign=middle;resizable=0;points=[];" vertex="1" connectable="0" parent="cqp6TmZRe166Ien4XK5x-20">
          <mxGeometry x="-0.4706" y="1" relative="1" as="geometry">
            <mxPoint as="offset" />
          </mxGeometry>
        </mxCell>
        <mxCell id="cqp6TmZRe166Ien4XK5x-7" value="Eligible ?" style="rhombus;whiteSpace=wrap;html=1;" vertex="1" parent="1">
          <mxGeometry x="360" y="380" width="80" height="80" as="geometry" />
        </mxCell>
        <mxCell id="cqp6TmZRe166Ien4XK5x-16" style="edgeStyle=orthogonalEdgeStyle;rounded=0;orthogonalLoop=1;jettySize=auto;html=1;entryX=0.5;entryY=0;entryDx=0;entryDy=0;" edge="1" parent="1" source="cqp6TmZRe166Ien4XK5x-9" target="cqp6TmZRe166Ien4XK5x-14">
          <mxGeometry relative="1" as="geometry" />
        </mxCell>
        <mxCell id="cqp6TmZRe166Ien4XK5x-17" value="oui" style="edgeLabel;html=1;align=center;verticalAlign=middle;resizable=0;points=[];" vertex="1" connectable="0" parent="cqp6TmZRe166Ien4XK5x-16">
          <mxGeometry x="-0.024" y="-3" relative="1" as="geometry">
            <mxPoint x="-11" y="-3" as="offset" />
          </mxGeometry>
        </mxCell>
        <mxCell id="cqp6TmZRe166Ien4XK5x-23" style="edgeStyle=orthogonalEdgeStyle;rounded=0;orthogonalLoop=1;jettySize=auto;html=1;entryX=0.5;entryY=0;entryDx=0;entryDy=0;" edge="1" parent="1" source="cqp6TmZRe166Ien4XK5x-9" target="cqp6TmZRe166Ien4XK5x-22">
          <mxGeometry relative="1" as="geometry" />
        </mxCell>
        <mxCell id="cqp6TmZRe166Ien4XK5x-29" value="non" style="edgeLabel;html=1;align=center;verticalAlign=middle;resizable=0;points=[];" vertex="1" connectable="0" parent="cqp6TmZRe166Ien4XK5x-23">
          <mxGeometry x="-0.2632" relative="1" as="geometry">
            <mxPoint as="offset" />
          </mxGeometry>
        </mxCell>
        <mxCell id="cqp6TmZRe166Ien4XK5x-9" value="Empruntable ?" style="rhombus;whiteSpace=wrap;html=1;" vertex="1" parent="1">
          <mxGeometry x="480" y="460" width="80" height="80" as="geometry" />
        </mxCell>
        <mxCell id="cqp6TmZRe166Ien4XK5x-10" value="" style="ellipse;html=1;shape=endState;fillColor=#000000;strokeColor=#ff0000;" vertex="1" parent="1">
          <mxGeometry x="385" y="690" width="30" height="30" as="geometry" />
        </mxCell>
        <mxCell id="cqp6TmZRe166Ien4XK5x-11" value="" style="line;strokeWidth=10;fillColor=none;align=left;verticalAlign=middle;spacingTop=-1;spacingLeft=3;spacingRight=3;rotatable=0;labelPosition=right;points=[];portConstraint=eastwest;strokeColor=inherit;" vertex="1" parent="1">
          <mxGeometry x="300" y="630" width="210" height="20" as="geometry" />
        </mxCell>
        <mxCell id="cqp6TmZRe166Ien4XK5x-12" value="" style="edgeStyle=none;orthogonalLoop=1;jettySize=auto;html=1;rounded=0;exitX=0.467;exitY=0.75;exitDx=0;exitDy=0;exitPerimeter=0;entryX=0.5;entryY=0;entryDx=0;entryDy=0;" edge="1" parent="1" source="cqp6TmZRe166Ien4XK5x-11" target="cqp6TmZRe166Ien4XK5x-10">
          <mxGeometry width="100" relative="1" as="geometry">
            <mxPoint x="340" y="670" as="sourcePoint" />
            <mxPoint x="440" y="670" as="targetPoint" />
            <Array as="points" />
          </mxGeometry>
        </mxCell>
        <mxCell id="cqp6TmZRe166Ien4XK5x-15" style="edgeStyle=orthogonalEdgeStyle;rounded=0;orthogonalLoop=1;jettySize=auto;html=1;" edge="1" parent="1" source="cqp6TmZRe166Ien4XK5x-14" target="cqp6TmZRe166Ien4XK5x-11">
          <mxGeometry relative="1" as="geometry" />
        </mxCell>
        <mxCell id="cqp6TmZRe166Ien4XK5x-14" value="Enregistrer l&#39;emprunt" style="rounded=1;whiteSpace=wrap;html=1;" vertex="1" parent="1">
          <mxGeometry x="580" y="545" width="120" height="40" as="geometry" />
        </mxCell>
        <mxCell id="cqp6TmZRe166Ien4XK5x-21" style="edgeStyle=orthogonalEdgeStyle;rounded=0;orthogonalLoop=1;jettySize=auto;html=1;" edge="1" parent="1" source="cqp6TmZRe166Ien4XK5x-19" target="cqp6TmZRe166Ien4XK5x-11">
          <mxGeometry relative="1" as="geometry" />
        </mxCell>
        <mxCell id="cqp6TmZRe166Ien4XK5x-19" value="Afficher erreur &quot;non éligible&quot;" style="rounded=1;whiteSpace=wrap;html=1;" vertex="1" parent="1">
          <mxGeometry x="190" y="480" width="120" height="40" as="geometry" />
        </mxCell>
        <mxCell id="cqp6TmZRe166Ien4XK5x-22" value="Afficher erreur &quot;document non disponible&quot;" style="rounded=1;whiteSpace=wrap;html=1;" vertex="1" parent="1">
          <mxGeometry x="345" y="520" width="120" height="40" as="geometry" />
        </mxCell>
        <mxCell id="cqp6TmZRe166Ien4XK5x-25" value="" style="edgeStyle=none;orthogonalLoop=1;jettySize=auto;html=1;rounded=0;exitX=0.5;exitY=1;exitDx=0;exitDy=0;entryX=0.481;entryY=0.3;entryDx=0;entryDy=0;entryPerimeter=0;" edge="1" parent="1" source="cqp6TmZRe166Ien4XK5x-22" target="cqp6TmZRe166Ien4XK5x-11">
          <mxGeometry width="100" relative="1" as="geometry">
            <mxPoint x="360" y="600" as="sourcePoint" />
            <mxPoint x="460" y="600" as="targetPoint" />
            <Array as="points" />
          </mxGeometry>
        </mxCell>
        <mxCell id="cqp6TmZRe166Ien4XK5x-26" value="" style="edgeStyle=none;orthogonalLoop=1;jettySize=auto;html=1;rounded=0;exitX=0.5;exitY=1;exitDx=0;exitDy=0;entryX=0.5;entryY=0;entryDx=0;entryDy=0;" edge="1" parent="1" source="cqp6TmZRe166Ien4XK5x-5" target="cqp6TmZRe166Ien4XK5x-7">
          <mxGeometry width="100" relative="1" as="geometry">
            <mxPoint x="380" y="360" as="sourcePoint" />
            <mxPoint x="480" y="360" as="targetPoint" />
            <Array as="points" />
          </mxGeometry>
        </mxCell>
      </root>
    </mxGraphModel>
  </diagram>
</mxfile>
